# This file uses centimeters as units for non-parametric coordinates.

mtllib beam.mtl
g default
v -0.500000 -0.500000 -8.000000
v 0.500000 -0.500000 -8.000000
v -0.500000 -0.500000 8.000000
v 0.500000 -0.500000 8.000000
v -0.500000 0.500000 8.000000
v 0.500000 0.500000 8.000000
v -0.500000 0.500000 -8.000000
v 0.500000 0.500000 -8.000000
vt 6.861750 0.000000
vt 6.861750 1.000000
vt -5.861750 1.000000
vt -5.861750 0.000000
vt 1.000000 0.000000
vt 1.000000 1.000000
vt 0.000000 1.000000
vt 0.000000 0.000000
vt 0.626875 0.001992
vt 0.739985 0.001992
vt 0.739985 0.127335
vt 0.626875 0.127335
vt 0.000000 8.500000
vt 1.000000 8.500000
vt 1.000000 -7.500000
vt 0.000000 -7.500000
vt 0.000000 -7.500000
vt 1.000000 -7.500000
vt 1.000000 8.500000
vt 0.000000 8.500000
vt 8.500000 1.000000
vt 8.500000 0.000000
vt -7.500000 0.000000
vt -7.500000 1.000000
vn 0.000000 -1.000000 0.000000
vn 0.000000 -1.000000 0.000000
vn 0.000000 -1.000000 0.000000
vn 0.000000 -1.000000 0.000000
vn 0.000000 0.000000 1.000000
vn 0.000000 0.000000 1.000000
vn 0.000000 0.000000 1.000000
vn 0.000000 0.000000 1.000000
vn 0.000000 1.000000 -0.000000
vn 0.000000 1.000000 -0.000000
vn 0.000000 1.000000 -0.000000
vn 0.000000 1.000000 -0.000000
vn 0.000000 -0.000000 -1.000000
vn 0.000000 -0.000000 -1.000000
vn 0.000000 -0.000000 -1.000000
vn 0.000000 -0.000000 -1.000000
vn 1.000000 0.000000 0.000000
vn 1.000000 0.000000 0.000000
vn 1.000000 0.000000 0.000000
vn 1.000000 0.000000 0.000000
vn -1.000000 0.000000 0.000000
vn -1.000000 0.000000 0.000000
vn -1.000000 0.000000 0.000000
vn -1.000000 0.000000 0.000000
s off
g pCube2
usemtl blinn4SG
f 1/13/1 2/14/2 4/15/3 3/16/4
f 3/5/5 4/6/6 6/7/7 5/8/8
f 5/17/9 6/18/10 8/19/11 7/20/12
f 7/9/13 8/10/14 2/11/15 1/12/16
f 2/1/17 8/2/18 6/3/19 4/4/20
f 7/21/21 1/22/22 3/23/23 5/24/24
