# This file uses centimeters as units for non-parametric coordinates.

mtllib post.mtl
g default
v -0.500000 -8.000000 0.500000
v 0.500000 -8.000000 0.500000
v -0.500000 8.000000 0.500000
v 0.500000 8.000000 0.500000
v -0.500000 8.000000 -0.500000
v 0.500000 8.000000 -0.500000
v -0.500000 -8.000000 -0.500000
v 0.500000 -8.000000 -0.500000
vt 0.000000 -7.500000
vt 0.000000 8.500000
vt 0.375000 0.250000
vt 0.625000 0.250000
vt 0.375000 0.500000
vt 0.625000 0.500000
vt 0.375000 0.750000
vt 0.625000 0.750000
vt 0.375000 1.000000
vt 0.625000 1.000000
vt 1.000000 8.500000
vt 1.000000 -7.500000
vt 0.000000 8.500000
vt 1.000000 8.500000
vt 1.000000 -7.500000
vt 0.000000 -7.500000
vt 1.000000 -7.500000
vt 1.000000 8.500000
vt 0.000000 8.500000
vt 0.000000 -7.500000
vt 0.000000 -7.500000
vt 1.000000 -7.500000
vt 1.000000 8.500000
vt 0.000000 8.500000
vn 0.000000 0.000000 1.000000
vn 0.000000 0.000000 1.000000
vn 0.000000 0.000000 1.000000
vn 0.000000 0.000000 1.000000
vn 0.000000 1.000000 0.000000
vn 0.000000 1.000000 0.000000
vn 0.000000 1.000000 0.000000
vn 0.000000 1.000000 0.000000
vn 0.000000 0.000000 -1.000000
vn 0.000000 0.000000 -1.000000
vn 0.000000 0.000000 -1.000000
vn 0.000000 0.000000 -1.000000
vn 0.000000 -1.000000 0.000000
vn 0.000000 -1.000000 0.000000
vn 0.000000 -1.000000 0.000000
vn 0.000000 -1.000000 0.000000
vn 1.000000 0.000000 0.000000
vn 1.000000 0.000000 0.000000
vn 1.000000 0.000000 0.000000
vn 1.000000 0.000000 0.000000
vn -1.000000 0.000000 0.000000
vn -1.000000 0.000000 0.000000
vn -1.000000 0.000000 0.000000
vn -1.000000 0.000000 0.000000
s off
g pCube1
usemtl blinn3SG
f 1/1/1 2/17/2 4/18/3 3/19/4
f 3/3/5 4/4/6 6/6/7 5/5/8
f 5/21/9 6/22/10 8/23/11 7/24/12
f 7/7/13 8/8/14 2/10/15 1/9/16
f 2/2/17 8/11/18 6/12/19 4/20/20
f 7/13/21 1/14/22 3/15/23 5/16/24
